<?xml version="1.0" encoding="utf-8"?>
<!-- Generator: Adobe Illustrator 24.1.1, SVG Export Plug-In . SVG Version: 6.00 Build 0)  -->
<svg version="1.1" id="Layer_1" xmlns="http://www.w3.org/2000/svg" xmlns:xlink="http://www.w3.org/1999/xlink" x="0px" y="0px"
	 viewBox="0 0 64 64" style="enable-background:new 0 0 64 64;" xml:space="preserve">
<circle style="fill:#1F1F1F;" cx="32" cy="32" r="32"/>
<g>
	<g>
		<g>
			<path style="fill:#FFFFFF;" d="M8.3,31c2.7,0,3.1-1.5,3.1-2.8c0-1.1-0.2-2.1-0.3-3.2c-0.2-1.1-0.3-2.1-0.3-3.2c0-3.5,2.3-5,5.5-5
				H17v2.1h-0.7c-2.2,0-3,1.2-3,3.3c0,0.9,0.1,1.8,0.3,2.7c0.2,1,0.3,1.9,0.3,2.9c0,2.4-1,3.6-2.7,4.1V32c1.7,0.4,2.8,1.7,2.7,4.1
				c0,1-0.1,2-0.3,2.9c-0.2,1-0.3,1.8-0.3,2.7c0,2.1,0.9,3.3,3,3.3H17v2.1h-0.8c-3.2,0-5.5-1.4-5.5-5.2c0-1,0.2-2.1,0.3-3.1
				c0.2-1,0.3-2.1,0.3-3.1c0-1.2-0.4-2.8-3.1-2.8V31z"/>
		</g>
	</g>
	<g>
		<g>
			<path style="fill:#FFFFFF;" d="M55.7,33c-2.7,0-3.1,1.5-3.1,2.8c0,1.1,0.2,2.1,0.3,3.2c0.2,1.1,0.3,2.1,0.3,3.2
				c0,3.5-2.3,5-5.5,5H47v-2.1h0.7c2.2,0,3-1.2,3-3.3c0-0.9-0.1-1.8-0.3-2.7c-0.2-1-0.3-1.9-0.3-2.9c0-2.4,1-3.6,2.7-4.1V32
				c-1.7-0.4-2.8-1.7-2.7-4.1c0-1,0.1-2,0.3-2.9c0.2-1,0.3-1.8,0.3-2.7c0-2.1-0.9-3.3-3-3.3H47v-2.1h0.8c3.2,0,5.5,1.4,5.5,5.2
				c0,1-0.2,2.1-0.3,3.1c-0.2,1-0.3,2.1-0.3,3.1c0,1.2,0.4,2.8,3.1,2.8V33z"/>
		</g>
	</g>
</g>
<g>
	<g>
		<g>
			<path style="fill:#FFFFFF;" d="M41.1,31.5c-0.6,0-1.1,0.1-1.6,0.3c0.5,0.4,0.9,0.7,1.4,1.1c0.6-4.7-2.7-9.1-7.4-9.8
				c-4.8-0.7-9.3,2.6-10,7.4c0.4-0.3,0.7-0.6,1.1-0.8c-4.8-0.5-8.1,5.1-5.3,9c1.8,2.4,4.4,2.4,7,2.4c3.1,0,6.2,0,9.3,0
				c2,0,4.1,0.2,6.1-0.1c2.5-0.3,4.3-2.6,4.1-5C45.6,33.4,43.5,31.6,41.1,31.5c-1.4-0.1-1.4,2.2,0,2.3c1.9,0.1,3.2,2.1,2.2,3.8
				c-0.5,0.9-1.4,1.2-2.4,1.2c-1.8,0-3.5,0-5.3,0c-3.9,0-7.8,0.1-11.6,0c-1.9-0.1-3.5-1.5-3.5-3.5c0-2.3,2-3.7,4.1-3.5
				c0.4,0,1-0.4,1.1-0.8c0.6-3.6,3.8-6.3,7.6-5.7c3.7,0.6,5.9,4,5.4,7.6c-0.1,0.7,0.8,1.3,1.4,1.1c0.3-0.1,0.7-0.2,1-0.2
				C42.5,33.7,42.5,31.4,41.1,31.5z"/>
		</g>
	</g>
	<path style="fill:none;stroke:#FFFFFF;stroke-width:2;stroke-linejoin:bevel;stroke-miterlimit:10;" d="M24.5,30.7
		c0,0,3.1,0.6,4,3.8"/>
	<path style="fill:none;stroke:#FFFFFF;stroke-width:2;stroke-linecap:square;stroke-linejoin:bevel;stroke-miterlimit:10;" d="
		M39.8,32.9c0,0-0.6,0.2-1.2,0.7"/>
</g>
</svg>
